<svg xmlns="http://www.w3.org/2000/svg" viewBox="0 0 64 64" width="64" height="64">
  <style>
    .st0{fill:#d3d3d3}.st1{fill:#3a3654}.st3{fill:#d3d3d3;enable-background:new}.st4{fill:#666}.st5{fill:#94aae0;enable-background:new}.st6{fill:#afc7ef}.st7{fill:#7a8ece;enable-background:new}.st8{fill:#8ba4d6}.st13{fill:#1d83d4}
  </style>
  <path class="st0" d="M52.7 8.6s-2.9-3.2-4.8-4.5c-.6-.4-5.3-2.9-8.4 5.6-1.7 4.7-1.7 8.1 2.1 9.6 2.2.9 1.4 2.5 1.4 2.5"/>
  <path class="st1" d="M48.1 3.8c2 1.3 4.8 4.4 4.9 4.6.2.2.2.5 0 .7-.2.2-.5.1-.7 0 0 0-2.8-3.1-4.8-4.4-.1 0-1.5-.9-3.1-.4-1.8.6-3.3 2.6-4.5 5.8-1.8 5.1-1.3 7.8 1.8 9 .9.4 1.5.9 1.7 1.5.3.9 0 1.6 0 1.7-.1.2-.4.3-.6.2-.2-.1-.4-.4-.2-.6 0 0 .2-.5 0-.9s-.6-.7-1.2-1c-4.6-1.8-3.7-6.4-2.3-10.2 1.3-3.6 3-5.7 5.1-6.4 2-.8 3.7.2 3.9.4z"/>
  <path d="M14.2 10.5h-6c-.5 0-.9.3-.9.7 0 .4.4.7.9.7h4.7l1.3-1.4z" fill="#666"/>
  <path class="st1" d="M8.2 10c-.8 0-1.4.5-1.4 1.2s.6 1.2 1.4 1.2h4.9l2.1-2.4h-7zm5 .9c-.2.3-.4.4-.5.6H8.2c-.3 0-.4-.1-.4-.3 0-.1.2-.3.4-.3h5z"/>
  <path class="st3" d="M6.3 8.7c-.8-.4-1.8-.3-2.1.3-.4.5 0 1.2.8 1.6.8.4 3 .9 3.3.4.4-.6-1.2-1.9-2-2.3z"/>
  <path class="st1" d="M3.8 8.7c-.3.3-.3.7-.2 1 .1.5.6 1 1.2 1.3.6.3 3.3 1.1 4 .2l.1-.7c-.3-.8-1.7-1.9-2.4-2.2-1-.5-2.2-.3-2.7.4zm4.1 2c-.4.1-1.9-.1-2.7-.5-.4-.2-.6-.5-.7-.7v-.3c.2-.3.9-.4 1.5-.1.8.4 1.7 1.2 1.9 1.6z"/>
  <path class="st3" d="M4.8 11.8c-.9.3-1.4 1-1.1 1.5.3.5 1.3.8 2.1.5.9-.3 2.7-1.4 2.4-2-.2-.6-2.5-.3-3.4 0z"/>
  <path class="st1" d="M4.7 11.3c-.7.2-1.2.7-1.4 1.2-.1.2-.1.3-.1.5s0 .4.1.5c.4.8 1.6 1.1 2.7.7.7-.3 2.3-1.1 2.7-1.9v-.7c-.5-1-3.3-.5-4-.3zm3 .7c-.2.3-1.2 1.1-2 1.3-.7.2-1.4.1-1.5-.2 0 0-.1-.1 0-.3.1-.2.3-.5.8-.6.9-.3 2.3-.3 2.7-.2zm-3-.7z"/>
  <path class="st3" d="M4.7 10.1c-1.3 0-2.4.5-2.4 1.1 0 .6 1.1 1.1 2.4 1.1 1.3 0 4.3-.5 4.3-1 0-.7-3-1.2-4.3-1.2z"/>
  <path class="st1" d="M1.8 11.1c0 .3.1.6.4.8.5.5 1.4.8 2.5.8 0 0 4.8-.1 4.8-1.5l-.2-.5c-.8-.8-3.6-1.1-4.6-1.1-1.6 0-2.9.6-2.9 1.5zm2.9-.6c1.1 0 2.9.3 3.6.6-.7.3-2.5.6-3.6.6-.9 0-1.6-.3-1.8-.5l-.1-.1c0-.1.7-.6 1.9-.6z"/>
  <path class="st4" d="M35.1 25.3v12c0 3 2.9 4 6.6 4 3.6 0 6.6-1.1 6.6-4V25.2"/>
  <path class="st1" d="M48.8 25.2v12.2c0 2.9-2.5 4.5-7 4.5s-7.1-1.6-7.1-4.5v-12c0-.3.2-.5.5-.5s.5.2.5.5v12c0 2.9 3.3 3.6 6.1 3.6s6.1-.6 6.1-3.6V25.2c0-.3.2-.5.5-.5.1 0 .4.2.4.5z"/>
  <path class="st5" d="M45.4 37.3c0 1.2.7 2.2 1.6 2.2.9 0 1.6-1 1.6-2.2 0-1.2-.7-3.9-1.6-3.9-.9 0-1.6 2.7-1.6 3.9z"/>
  <path class="st1" d="M46.9 33.3c-1 0-1.7 2.9-1.7 4.1 0 1.3.8 2.3 1.7 2.3.9 0 1.7-1 1.7-2.3.1-1.3-.6-4.1-1.7-4.1zm0 6c-.8 0-1.4-.9-1.4-2 0-1.3.7-3.8 1.4-3.8s1.4 2.5 1.4 3.8c0 1.1-.6 2-1.4 2z"/>
  <path class="st6" d="M48.1 37.5c0-1.2-.8-3.2-1.5-3.2-.1 0-.1 0-.2.1.2-.4.3-.6.5-.6.7 0 1.2 2.6 1.2 3.7"/>
  <g>
    <path class="st5" d="M44.7 38.5c0 .9.6 1.7 1.2 1.7.7 0 1.2-.8 1.2-1.7 0-.9-.6-3-1.2-3-.7 0-1.2 2-1.2 3z"/>
    <path class="st1" d="M45.9 35.3c-.9 0-1.4 2.4-1.4 3.2 0 1 .6 1.8 1.4 1.8.8 0 1.4-.8 1.4-1.8 0-.8-.5-3.2-1.4-3.2zm0 4.7c-.6 0-1.1-.7-1.1-1.5 0-1 .6-2.9 1.1-2.9.5 0 1.1 1.9 1.1 2.9 0 .8-.5 1.5-1.1 1.5z"/>
  </g>
  <path class="st6" d="M46.6 37.9c.1-.7-.5-1.8-1-1.8h-.1c.1-.2.3-.3.4-.3.5.2.8 1.5.7 2.1"/>
  <g>
    <path class="st4" d="M15.1 25.5v12c0 3 2.9 4 6.6 4 3.6 0 6.6-1.1 6.6-4V25.3"/>
    <path class="st1" d="M28.7 25.3v12.2c0 2.9-2.5 4.5-7.1 4.5-2 0-3.7-.3-4.9-1-1.4-.8-2.2-2-2.2-3.5v-12c0-.3.2-.5.5-.5s.5.2.5.5v12c0 1.2.5 2.1 1.7 2.7 1 .6 2.6.8 4.4.8 2.8 0 6.1-.6 6.1-3.6V25.3c0-.3.2-.5.5-.5.3.1.5.3.5.5z"/>
    <path class="st7" d="M25.3 37.5c0 1.2.7 2.2 1.6 2.2.9 0 1.6-1 1.6-2.2 0-1.2-.7-3.9-1.6-3.9-.9 0-1.6 2.7-1.6 3.9z"/>
    <path class="st1" d="M26.9 33.4c-1 0-1.7 2.9-1.7 4.1 0 1.3.8 2.3 1.7 2.3.9 0 1.7-1 1.7-2.3 0-.6-.2-1.7-.5-2.5-.2-.7-.7-1.6-1.2-1.6zm0 6.1c-.8 0-1.4-.9-1.4-2 0-1.3.7-3.8 1.4-3.8.3 0 .7.5.9 1.4.3.8.4 1.7.4 2.4.1 1.1-.6 2-1.3 2z"/>
    <path class="st8" d="M28 37.7c0-1.2-.8-3.2-1.5-3.2-.1 0-.1 0-.2.1.2-.4.3-.6.5-.6.7-.1 1.2 2.5 1.2 3.7"/>
    <g>
      <path class="st7" d="M24.6 38.6c0 .9.6 1.7 1.2 1.7.7 0 1.2-.7 1.2-1.7 0-.9-.6-3-1.2-3-.7 0-1.2 2.1-1.2 3z"/>
      <path class="st1" d="M25.8 35.4c-.9 0-1.4 2.4-1.4 3.2 0 1 .6 1.8 1.4 1.8.8 0 1.4-.8 1.4-1.8 0-.8-.5-3.2-1.4-3.2zm0 4.7c-.6 0-1.1-.7-1.1-1.5 0-1 .6-2.9 1.1-2.9.5 0 1.1 1.9 1.1 2.9 0 .9-.5 1.5-1.1 1.5z"/>
    </g>
    <path class="st8" d="M26.5 38.1c.1-.7-.5-1.8-1-1.8h-.1c.1-.2.3-.3.4-.3.5.2.8 1.4.7 2.1"/>
  </g>
  <g>
    <linearGradient id="SVGID_1_" gradientUnits="userSpaceOnUse" x1="29.0101" y1="17.968" x2="47.8831" y2="32.033" gradientTransform="matrix(-1 0 0 1 66.634 0)">
      <stop offset="0" stop-color="#859ce8"/>
      <stop offset="1" stop-color="#526191"/>
    </linearGradient>
    <path d="M40.7 8.9c-2.6 4.2-2.3 7.7 1.1 9.5 2 1.1.9 2.6.9 2.6" fill="url(#SVGID_1_)"/>
    <path d="M40.9 8.5c.2.1.3.4.2.6-1.4 2.3-1.9 4.4-1.5 6.1.3 1.2 1.1 2.1 2.4 2.8.8.4 1.3 1 1.4 1.6.2.9-.3 1.6-.4 1.6-.2.2-.5.2-.7.1-.2-.2-.3-.4-.1-.7 0 0 .3-.4.2-.9-.1-.4-.4-.7-1-1-1.5-.8-2.5-2-2.9-3.4-.5-1.9 0-4.2 1.6-6.8.3-.1.6-.1.8 0z" fill="#050505"/>
  </g>
  <g>
    <path class="st4" d="M25.7 6s4.2 0 19.8.5c15.5.5 14.9 6.1 15 14.1v19.2c0 1.6-1.4 2.3-3.1 2.3-1.7 0-3.1-.7-3.1-2.3 0 0-.4-5.5-.7-8.8-.8-12.1-15.4 2-26.1 1.3-9.8-.7-17.5-4-17.5-12C10 12.4 15 6 25.7 6z"/>
    <path class="st1" d="M25.7 5.5c-5.1 0-9.4 1.5-12.2 4.4-2.6 2.6-4 6.2-4 10.5 0 7.2 6.3 11.6 17.7 12.3 4.3.3 9.2-1.8 13.5-3.6 4.3-1.8 8.3-3.5 10.4-2.3 1 .6 1.6 1.9 1.7 4.1.3 3.3.7 8.8.7 8.8 0 1.7 1.4 2.7 3.6 2.7 2.3 0 3.6-1 3.6-2.7v-20c0-7.6 0-13.2-15.4-13.7-15.1-.6-19.5-.5-19.6-.5zm31.6 36c-1 0-2.7-.2-2.7-1.8 0-.1-.4-5.5-.7-8.8-.2-2.5-.9-4-2.2-4.8-2.5-1.5-6.6.2-11.3 2.2-4.2 1.8-9 3.8-13 3.5-7.7-.5-16.8-2.8-16.8-11.4 0-4 1.3-7.4 3.7-9.8 2.6-2.7 6.6-4.1 11.5-4.1 0 0 4.4 0 19.7.5C60 7.4 60 12.3 60 19.6v20c0 1.7-1.7 1.9-2.7 1.9z"/>
  </g>
  <path class="st0" d="M60 21c0 1.8.2 17.6-.8 18.5.3-.7-.4-16-.4-16.9V22v-.8c.4-.1.8-.3 1.1-.5l.1.3z"/>
  <path class="st0" d="M25.7 6.5s4.2 0 19.3.5c15.2.4 15 6 15 13.6v.3c-.4.2-.7.4-1.1.5 0-7.2-.3-12.4-14.9-12.9-15.2-.5-19.4-.4-19.4-.4-5.8 0-9.8 2-12.3 5 2.3-4 6.7-6.6 13.4-6.6z"/>
  <g>
    <path class="st4" d="M31 30.8v8.6c0 3 2.9 4 6.6 4 3.6 0 6.6-1.1 6.6-4v-13"/>
    <path class="st1" d="M44.6 26.4v13c0 2.9-2.5 4.5-7.1 4.5-4.5 0-7.1-1.6-7.1-4.5v-8.6c0-.3.2-.5.5-.5s.5.2.5.5v8.6c0 2.9 3.3 3.6 6.1 3.6s6.1-.6 6.1-3.6v-13c0-.3.2-.5.5-.5s.5.2.5.5z"/>
    <path class="st5" d="M40 40.2c0 1.1.9 2 2.1 2 1.1 0 2.1-.9 2.1-2s-.9-3.6-2.1-3.6c-1.2 0-2.1 2.5-2.1 3.6z"/>
    <path class="st1" d="M42.1 36.4c-1.3 0-2.2 2.7-2.2 3.8 0 1.2 1 2.2 2.2 2.2 1.2 0 2.2-1 2.2-2.2 0-1.1-.9-3.8-2.2-3.8zm0 5.7c-1.1 0-1.9-.8-1.9-1.9 0-1.1.9-3.5 1.9-3.5 1 0 1.9 2.4 1.9 3.5 0 1-.9 1.9-1.9 1.9z"/>
    <path class="st6" d="M43.8 40.4c0-1-1.2-2.8-2-2.8-.1 0-.2 0-.2.1.2-.3.5-.5.7-.5.8-.1 1.5 2.2 1.5 3.2"/>
    <path class="st5" d="M38.3 40.4c0 1.5 1 2.7 2.1 2.7 1.2 0 2.1-1.2 2.1-2.7 0-1.5-1-4.8-2.1-4.8s-2.1 3.3-2.1 4.8z"/>
    <path class="st1" d="M40.5 35.4c-1.3 0-2.3 3.5-2.3 5 0 1.6 1 2.8 2.3 2.8 1.3 0 2.3-1.3 2.3-2.8 0-1.5-1-5-2.3-5zm0 7.5c-1.1 0-2-1.1-2-2.5s1-4.6 2-4.6 2 3.2 2 4.6c0 1.4-.9 2.5-2 2.5z"/>
    <path class="st6" d="M42 40.6c0-1.4-1.2-4-2-4-.1 0-.2 0-.2.1.2-.4.5-.7.7-.7.9 0 1.5 3.2 1.5 4.6"/>
    <g>
      <path class="st5" d="M37.2 41.2c0 1 .7 1.9 1.5 1.9.9 0 1.5-.8 1.5-1.9 0-1-.7-3.4-1.5-3.4s-1.5 2.3-1.5 3.4z"/>
      <path class="st1" d="M38.8 37.6c-1 0-1.7 2.5-1.7 3.6s.8 2 1.7 2c.9 0 1.7-.9 1.7-2s-.7-3.6-1.7-3.6zm0 5.3c-.8 0-1.4-.8-1.4-1.7 0-1.1.7-3.2 1.4-3.2.6 0 1.4 2.1 1.4 3.2-.1.9-.7 1.7-1.4 1.7z"/>
    </g>
    <path class="st6" d="M39.6 40.5c.1-.7-.6-2-1.2-2.1h-.2c.2-.2.4-.4.5-.3.6.3 1 1.7.9 2.4"/>
  </g>
  <g>
    <path class="st4" d="M10.9 25v14.1c0 3 2.9 4 6.6 4 3.6 0 6.6-1.1 6.6-4V31"/>
    <path class="st1" d="M11.4 25v14.1c0 2.9 3.3 3.6 6.1 3.6s6.1-.6 6.1-3.6V31c0-.3.2-.5.5-.5s.5.2.5.5v8.1c0 2.9-2.5 4.5-7 4.5s-7.1-1.6-7.1-4.5V25c0-.3.2-.5.5-.5.2 0 .4.2.4.5z"/>
    <path class="st5" d="M19.9 39.9c0 1.1.9 2 2.1 2 1.1 0 2.1-.9 2.1-2s-.9-3.6-2.1-3.6c-1.1-.1-2.1 2.5-2.1 3.6z"/>
    <path class="st1" d="M22 36.1c-1.3 0-2.2 2.7-2.2 3.8 0 1.2 1 2.2 2.2 2.2s2.2-1 2.2-2.2c0-1.1-.9-3.8-2.2-3.8zm0 5.6c-1.1 0-1.9-.8-1.9-1.9 0-1.1.9-3.5 1.9-3.5 1 0 1.9 2.4 1.9 3.5s-.8 1.9-1.9 1.9z"/>
    <path class="st6" d="M23.7 40c0-1-1.2-2.8-2-2.8-.1 0-.2 0-.2.1.2-.3.5-.5.7-.5.8 0 1.5 2.2 1.5 3.2"/>
    <path class="st5" d="M18.2 40c0 1.5 1 2.7 2.1 2.7 1.2 0 2.1-1.2 2.1-2.7 0-1.5-1-4.8-2.1-4.8s-2.1 3.4-2.1 4.8z"/>
    <path class="st1" d="M20.4 35.1c-1.3 0-2.3 3.5-2.3 5 0 1.6 1 2.8 2.3 2.8 1.3 0 2.3-1.3 2.3-2.8 0-1.5-1-5-2.3-5zm0 7.5c-1.1 0-2-1.1-2-2.5s1-4.6 2-4.6 2 3.2 2 4.6c0 1.3-.9 2.5-2 2.5z"/>
    <path class="st6" d="M22 40.3c0-1.4-1.2-4-2-4-.1 0-.2 0-.2.1.2-.4.5-.7.7-.7.8 0 1.5 3.2 1.5 4.6"/>
    <g>
      <path class="st5" d="M17.1 40.8c0 1 .7 1.9 1.5 1.9.9 0 1.5-.8 1.5-1.9 0-1-.7-3.4-1.5-3.4s-1.5 2.4-1.5 3.4z"/>
      <path class="st1" d="M18.7 37.3c-1 0-1.7 2.5-1.7 3.6s.8 2 1.7 2c.9 0 1.7-.9 1.7-2s-.7-3.6-1.7-3.6zm0 5.3c-.8 0-1.4-.8-1.4-1.7 0-1.1.7-3.2 1.4-3.2.6 0 1.4 2.1 1.4 3.2-.1.9-.7 1.7-1.4 1.7z"/>
    </g>
    <path class="st6" d="M19.6 40.2c.1-.7-.6-2-1.2-2.1h-.2c.2-.2.4-.4.5-.3.6.3.9 1.7.9 2.4"/>
  </g>
  <g>
    <path class="st1" d="M56.3 12.7c.2.2.1.6-.1.7-.2.2-.6.1-.8-.1-1-1.3-3.2-1.7-4.2-1.3-.2.1-.5 0-.6-.1-.1-.1 0-.3.2-.3 1.4-.6 4.2-.7 5.5 1.1z"/>
  </g>
  <g>
    <path class="st1" d="M52 18.7c1.1.2 2-.4 2.1-1.3.1-.9-.7-1.9-1.8-2.1-1.1-.2-2 .4-2.1 1.3 0 .9.7 1.8 1.8 2.1zm-1.4-2c.1-.8.9-1.3 1.8-1.1.9.2 1.6 1 1.5 1.8-.1.8-.9 1.3-1.8 1.1-.9-.2-1.6-1-1.5-1.8z"/>
    <path d="M50.7 16.7c-.1.7.5 1.4 1.3 1.6.8.2 1.5-.3 1.6-1 .1-.7-.5-1.4-1.3-1.6-.9-.1-1.6.3-1.6 1z" fill="#fcfcfc"/>
    <path class="st1" d="M50.8 16.7c.2-.5.8-.9 1.3-.7.3.1.4.3.5.5l-.7.3.6.4c-.2.5-.8.8-1.2.7-.5-.1-.7-.6-.5-1.2z"/>
    <path d="M51.3 16.5c-.1 0-.3.1-.3.3-.1.2 0 .4.1.4s.3-.1.3-.3c.1-.2 0-.4-.1-.4z" fill="#fff"/>
    <path class="st1" d="M53.2 15.7c.8.7 1.1 1.6.5 2.1 0 0-.1.1 0 .1.9-.5 1-2 .2-2.8-.7-.7-2.8-1.3-2.8-1 .1.3.7.7 1.5 1.2.3.1.5.3.6.4z"/>
  </g>
  <g>
    <path class="st13" d="M20.3 57.8h-3.1l1-6.2h-1.1l.4-2.6h1.1l.2-1.1c.2-1.2.4-2.1 1.4-3.1.9-.9 2.1-1.4 3.3-1.4.5 0 .9.1 1.3.3l-.4 2.7c-.3-.2-.6-.3-1-.3-.8 0-1.1.5-1.3 1.5l-.4 1.4h2.2l-.4 2.6h-2.2l-1 6.2zM27.8 50c.7-.9 1.9-1.3 2.9-1.3 2.6 0 4.1 2.2 3.7 4.7-.4 2.5-2.5 4.6-5.1 4.6-1 0-2-.4-2.5-1.1l-.8 5.2h-3.1L24.8 49h3.1l-.1 1zm-.7 3.4c-.2 1.1.4 2 1.7 2 1.3 0 2.1-.9 2.3-2 .2-1.1-.4-2-1.7-2-1.2 0-2.1.9-2.3 2zM41.9 56.8c-.7.9-1.9 1.3-2.9 1.3-2.6 0-4.1-2.2-3.7-4.7.4-2.5 2.5-4.7 5.1-4.7 1 0 2 .4 2.5 1.1l1-6.3H47l-2.2 14.2h-3.1l.2-.9zm-3.3-3.4c-.2 1.1.4 2 1.7 2 1.3 0 2.1-.9 2.3-2 .2-1.1-.4-2-1.7-2-1.3 0-2.2.9-2.3 2zM50.2 57.8h-3.1l1-6.2H47l.4-2.6h1.1l.2-1.1c.2-1.2.4-2.1 1.4-3.1.9-.9 2.1-1.4 3.3-1.4.5 0 .9.1 1.3.3l-.4 2.7c-.3-.2-.6-.3-1-.3-.8 0-1.1.5-1.3 1.5l-.4 1.4h2.2l-.4 2.6h-2.2l-1 6.2z"/>
  </g>
  <g>
    <path class="st4" d="M48.1 7.4s-3.8-2.6-6.3-3.6c-.8-.3-6.4-1.8-7.3 7.9-.5 5.3.4 8.9 4.7 9.6 2.6.4 2.2 2.3 2.2 2.3"/>
    <path class="st1" d="M42 3.4c2.5.9 6.2 3.5 6.4 3.6.2.1.3.4.1.7-.2.2-.5.3-.7.1 0 0-3.8-2.6-6.2-3.5-.1 0-1.8-.7-3.5.3s-2.8 3.5-3.2 7.1c-.5 5.8.7 8.5 4.3 9.1 1 .2 1.8.5 2.2 1.2.6.8.4 1.7.4 1.7-.1.3-.3.4-.6.4s-.4-.3-.4-.5c0 0 .1-.5-.2-1-.3-.4-.8-.6-1.5-.8-5.3-.8-5.5-5.8-5.1-10.1.4-4 1.6-6.6 3.6-7.9 2.1-1.2 4.2-.5 4.4-.4z"/>
  </g>
  <path class="st0" d="M48.4 9.5c1.2.3.6-.8.6-.8s-4.7-3.3-7.1-4.3c-.5-.2-2.6-.8-4.5 1 0 0 2.4-1.4 6.8 1.3 1.4.9 4.2 2.8 4.2 2.8z"/>
  <g>
    <path class="st1" d="M45.7 19.6c0 2.2.8 4.2 1.9 5.3.5.5 1.1.7 1.7.7.2 0 .3.1.3.3 0 .2-.1.3-.3.3-.8 0-1.5-.3-2.1-.8-1.3-1.1-2.1-3.3-2.1-5.7 0-.2.1-.3.3-.3.2-.1.3 0 .3.2z"/>
    <path class="st1" d="M44.3 18c.2.6.7.9 1.2 1 .5.1 1-.2 1.3-.6.1-.1.3-.2.5-.1.1.1.2.3.1.4-.5.6-1.2.9-1.9.9-.7-.1-1.3-.6-1.7-1.4-.1-.2 0-.3.2-.4.1 0 .3 0 .3.2z"/>
  </g>
</svg>

