<svg  version="1.1" xmlns="http://www.w3.org/2000/svg" xmlns:xlink="http://www.w3.org/1999/xlink"
        width="72" height="72" viewBox="0 0 72 72">

<style type="text/css">
.st0{fill:hsl(30, 20%, 50%);}
.st1{fill:hsl(15, 50%, 50%);}
.st2{fill:hsl(0, 20%, 20%); }
.st3{fill:hsl(0, 0%, 80%); }
</style>

<g transform="translate(7 7)">
    <ellipse class="st2" cx="28.679" cy="28.8" rx="28.68" ry="28.8"/>
    <path class="st1" d="M47.125,26.649c-0.955-3.141-1.84-5.774-4.207-8.144c-2.074-2.074-2.719-6.432-0.133-8.414 c-2.412-1.182-4.818,0.409-6.656,1.802c-1.291,0.977-2.04-0.26-3.27-0.26c-1.675,0-3.246-0.021-4.902-0.242 c-1.087-0.146-2.615,0.051-3.698,0.271c-0.661,0.136-3.214,1.267-3.746,0.62c-1.848-2.25-4.677-2.517-7.363-2.876 c0.665,1.446,1.551,2.482,1.665,4.158c0.109,1.604-0.112,3.353-1.017,4.681c-2.09,3.07-3.662,5.982-4.363,9.719 c-0.619,3.306-0.104,6.345,0.745,9.545c0.427,1.61,0.725,3.06,1.347,4.613c0.605,1.511,0.174,3.424,1.059,4.816 c0.882-0.824,1.534-1.719,2.619-2.241c1.226-0.592,2.02,0.481,3.042,0.635c2.248,0.338,4.075-1.268,6.054,0.832 c1.013,1.075,1.513,1.005,2.949,1.085c0.518,0.029,3.119,0.079,3.289-0.149c1.518-2.021,4.055-2.302,6.377-1.646 c0.383,0.107,1.297,0.565,1.469,0.158c0.266-0.626,0.695-0.953,1.418-1.09c1.307-0.246,2.109,0.977,3.127,1.679 c1.045,0.723,1.445,0.408,1.639-1.047c0.15-1.147-0.184-2.161,0.209-3.271C46.57,36.797,47.656,32.035,47.125,26.649"/>
    <circle class="st3" cx="19.093" cy="24.443" r="6.926"/>
    <circle class="st3" cx="36.65" cy="24.783" r="7.206"/>
    <path class="st0" d="M31.335,30.723l-0.016-0.002c0.162-0.442,0.264-0.915,0.264-1.414c0-2.296-1.86-4.155-4.156-4.155 s-4.156,1.859-4.156,4.155c0,0.636,0.152,1.23,0.407,1.769l-0.004,0.005l0.023,0.038c0.119,0.244,0.253,0.479,0.415,0.693 l1.541,2.5l2.004,3.85l1.844-3.447l1.668-3.626c0.039-0.084,0.08-0.167,0.115-0.254L31.335,30.723z"/>
    <circle cx="20.562" cy="25.532" r="2.285"/>
    <circle cx="38.279" cy="25.291" r="2.285"/>
</g>
</svg>
